<svg width="225" height="619" viewBox="0 0 225 619" fill="none" xmlns="http://www.w3.org/2000/svg">
    <rect x="207" y="53" width="17" height="33" fill="#C53030"/>
    <rect x="153.812" y="31.9185" width="12" height="45" transform="rotate(-45 153.812 31.9185)" fill="#C53030"/>
    <rect x="170" y="42" width="20" height="27" transform="rotate(-90 170 42)" fill="#C53030"/>
    <rect x="185.82" width="12" height="45" transform="rotate(45 185.82 0)" fill="#C53030"/>
    <rect x="205" y="266" width="20" height="30" fill="#C53030"/>
    <rect x="19" y="261" width="22" height="100" fill="#C53030"/>
    <rect x="19" y="161" width="22" height="100" fill="#C53030"/>
    <rect x="19" y="359" width="22" height="100" fill="#C53030"/>
    <rect x="19" y="459" width="22" height="100" fill="#C53030"/>
    <path d="M59.5 588C59.5 604.315 46.4934 617.5 30.5 617.5C14.5066 617.5 1.5 604.315 1.5 588C1.5 571.685 14.5066 558.5 30.5 558.5C46.4934 558.5 59.5 571.685 59.5 588Z" stroke="#C53030" stroke-width="3"/>
    <rect x="205" y="160" width="20" height="30" fill="#C53030"/>
    <mask id="path-12-inside-1" fill="white">
        <path d="M196.5 22C200.111 22 203.687 22.8277 207.024 24.4359C210.36 26.044 213.392 28.4011 215.945 31.3726C218.499 34.3441 220.525 37.8717 221.907 41.7541C223.289 45.6366 224 49.7977 224 54L206.801 54C206.801 52.426 206.534 50.8673 206.017 49.4131C205.499 47.9589 204.74 46.6375 203.784 45.5245C202.827 44.4115 201.692 43.5286 200.442 42.9262C199.192 42.3239 197.853 42.0139 196.5 42.0139V22Z"/>
    </mask>
    <path d="M196.5 22C200.111 22 203.687 22.8277 207.024 24.4359C210.36 26.044 213.392 28.4011 215.945 31.3726C218.499 34.3441 220.525 37.8717 221.907 41.7541C223.289 45.6366 224 49.7977 224 54L206.801 54C206.801 52.426 206.534 50.8673 206.017 49.4131C205.499 47.9589 204.74 46.6375 203.784 45.5245C202.827 44.4115 201.692 43.5286 200.442 42.9262C199.192 42.3239 197.853 42.0139 196.5 42.0139V22Z" stroke="#C53030" stroke-width="40" mask="url(#path-12-inside-1)"/>
    <path fill-rule="evenodd" clip-rule="evenodd" d="M44.7302 469.057C37.1731 476.331 31.0831 484.651 26.7262 493.675C24.6362 498.004 22.9617 502.461 21.7132 507C19.9147 513.539 19 520.25 19 527H40.315C40.315 517.966 42.389 509.02 46.4187 500.673C49.4488 494.397 53.5399 488.552 58.5488 483.323C59.4499 482.382 60.3808 481.461 61.3405 480.561C62.1406 479.811 62.9608 479.075 63.8006 478.355C70.7166 472.421 78.835 467.627 87.7513 464.204C88.4344 463.942 89.1222 463.688 89.8145 463.442C93.389 462.171 97.0577 461.128 100.791 460.315C107.219 458.917 113.839 458.205 120.5 458.205L120.5 458.082C127.133 458.082 133.733 457.524 140.209 456.425C146.017 455.438 151.724 454.016 157.263 452.169C157.959 451.937 158.652 451.699 159.342 451.453C170.567 447.464 180.857 441.782 189.728 434.683C190.59 433.994 191.437 433.292 192.271 432.576C193.646 431.397 194.979 430.185 196.27 428.943C203.827 421.669 209.917 413.349 214.274 404.325C216.364 399.996 218.038 395.539 219.287 391C221.085 384.461 222 377.75 222 371H200.685C200.685 380.034 198.611 388.98 194.581 397.327C191.551 403.603 187.46 409.448 182.451 414.677C181.55 415.618 180.619 416.539 179.66 417.439C178.859 418.189 178.039 418.925 177.199 419.645C170.283 425.579 162.165 430.373 153.249 433.796C152.566 434.058 151.878 434.312 151.185 434.558C147.611 435.829 143.942 436.872 140.209 437.685C133.781 439.083 127.161 439.795 120.5 439.795L120.5 439.918C113.867 439.918 107.267 440.476 100.791 441.575C94.9835 442.562 89.2763 443.984 83.7369 445.831C83.0411 446.063 82.348 446.301 81.6576 446.547C70.4328 450.536 60.1428 456.218 51.2717 463.316C50.4105 464.006 49.5627 464.708 48.7287 465.424C47.3539 466.603 46.0207 467.815 44.7302 469.057Z" fill="#C53030"/>
</svg>
